<svg xmlns="http://www.w3.org/2000/svg" viewBox="0 0 64 64" role="img" aria-labelledby="title">
  <title id="title">First Bloom four-petal mark</title>
  <defs>
    <radialGradient id="night" cx="50%" cy="42%" r="72%">
      <stop offset="0" stop-color="#171b48"/>
      <stop offset="1" stop-color="#070817"/>
    </radialGradient>
    <linearGradient id="petal" x1="0" y1="0" x2="1" y2="1">
      <stop offset="0" stop-color="#fff4bf"/>
      <stop offset=".38" stop-color="#ffd773"/>
      <stop offset=".7" stop-color="#82f4ee"/>
      <stop offset="1" stop-color="#ff9b85"/>
    </linearGradient>
  </defs>
  <rect width="64" height="64" rx="15" fill="url(#night)"/>
  <g fill="none" stroke="url(#petal)" stroke-width="3" stroke-linecap="round" stroke-linejoin="round">
    <path d="M32 30C20 25 18 13 22 8c8 1 13 8 10 22Z"/>
    <path d="M34 32c5-12 17-14 22-10-1 8-8 13-22 10Z"/>
    <path d="M32 34c12 5 14 17 10 22-8-1-13-8-10-22Z"/>
    <path d="M30 32c-5 12-17 14-22 10 1-8 8-13 22-10Z"/>
  </g>
  <circle cx="32" cy="32" r="5" fill="#fff8da"/>
  <circle cx="32" cy="32" r="11" fill="none" stroke="#82f4ee" stroke-opacity=".35"/>
</svg>
